<svg version="1.1" xmlns="http://www.w3.org/2000/svg" viewBox="0 0 4992.35924832783 1574.1713164994248" width="9984.71849665566" height="3148.3426329988497" filter="invert(93%) hue-rotate(180deg)">
  <!-- svg-source:excalidraw -->
  
  <defs>
    <style class="style-fonts">
      @font-face {
        font-family: "Virgil";
        src: url("https://excalidraw.com/Virgil.woff2");
      }
      @font-face {
        font-family: "Cascadia";
        src: url("https://excalidraw.com/Cascadia.woff2");
      }
      @font-face {
        font-family: "Assistant";
        src: url("https://excalidraw.com/Assistant-Regular.woff2");
      }
    </style>
    
  </defs>
  <rect x="0" y="0" width="4992.35924832783" height="1574.1713164994248" fill="#ffffff"></rect><g stroke-linecap="round" transform="translate(245.42016092936205 126.8330078125) rotate(0 380.22460937500006 228.353515625)"><path d="M32 0 C270.43 -0.2, 508.85 -1.36, 728.45 0 M32 0 C227.09 -1.55, 422.64 -1.73, 728.45 0 M728.45 0 C747.94 -1.52, 761.04 9.26, 760.45 32 M728.45 0 C751.24 0.58, 762.17 10.18, 760.45 32 M760.45 32 C761 172.22, 761.12 312.86, 760.45 424.71 M760.45 32 C759.25 138.59, 759.93 244.5, 760.45 424.71 M760.45 424.71 C760.34 445.2, 750.27 454.73, 728.45 456.71 M760.45 424.71 C761 445.71, 749.93 457.64, 728.45 456.71 M728.45 456.71 C506.48 455.96, 283.19 455.85, 32 456.71 M728.45 456.71 C585.08 454.24, 441.94 453.94, 32 456.71 M32 456.71 C9.56 457.16, 0.61 444.75, 0 424.71 M32 456.71 C12.33 457.82, -1.54 446.02, 0 424.71 M0 424.71 C3.06 338.58, 2.75 252.37, 0 32 M0 424.71 C-0.99 345.11, -1.45 266.75, 0 32 M0 32 C0.91 9.45, 8.97 -1.62, 32 0 M0 32 C2.08 12.53, 12.62 -1.87, 32 0" stroke="#2f9e44" stroke-width="2" fill="none"></path></g><g stroke-linecap="round"><g transform="translate(246.06859842936205 241.4541015625) rotate(0 379.95703125 -1.6953125)"><path d="M0.83 -0.83 C127.37 -1.41, 633.1 -3.43, 759.52 -3.83 M-0.2 1.35 C126.13 0.96, 631.95 -2, 758.37 -2.53" stroke="#2f9e44" stroke-width="2" fill="none"></path></g></g><mask></mask><g stroke-linecap="round"><g transform="translate(247.43578592936205 354.5673828125) rotate(0 379.203125 -2.71484375)"><path d="M0.16 0.46 C126.66 -0.63, 631.99 -4.65, 758.53 -5.68 M-1.22 -0.34 C125.18 -1.32, 630.91 -3.58, 757.64 -4.27" stroke="#2f9e44" stroke-width="2" fill="none"></path></g></g><mask></mask><g stroke-linecap="round"><g transform="translate(407.04146548937183 126.06069375668653) rotate(0 0.142578125 228.974609375)"><path d="M0.21 0.84 C0.08 77.22, 0.3 382.44, 0.33 458.72 M-1.13 0.23 C-1.52 76.25, -0.73 380.96, -0.59 457" stroke="#2f9e44" stroke-width="2" fill="none"></path></g></g><mask></mask><g stroke-linecap="round"><g transform="translate(250.03926549395237 473.3663162816316) rotate(0 376.05078125 -2.599609375)"><path d="M-0.94 0.76 C124.56 -0.27, 627.2 -4.64, 752.81 -5.71 M0.77 0.11 C126.19 -0.79, 626.98 -3.66, 752.23 -4.44" stroke="#2f9e44" stroke-width="2" fill="none"></path></g></g><mask></mask><g stroke-linecap="round"><g transform="translate(555.3216962132519 125.26553672631275) rotate(0 0.142578125 228.974609375)"><path d="M-0.02 -0.25 C-0.09 76.21, -0.12 382.08, -0.17 458.53 M-1.48 -1.43 C-1.78 74.7, -1.37 380.41, -1.35 456.72" stroke="#2f9e44" stroke-width="2" fill="none"></path></g></g><mask></mask><g stroke-linecap="round"><g transform="translate(695.5365399632519 128.2264742263128) rotate(0 0.142578125 228.974609375)"><path d="M-1.13 0.72 C-1.1 77.15, 0.83 381.46, 1.14 457.66 M0.48 0.06 C0.34 76.75, 0.69 382.52, 0.64 459.05" stroke="#2f9e44" stroke-width="2" fill="none"></path></g></g><mask></mask><g stroke-linecap="round"><g transform="translate(836.0131024632519 128.0116304763128) rotate(0 0.142578125 228.974609375)"><path d="M-0.21 -0.45 C-0.54 76.11, -1.01 381.71, -0.81 458.23 M-1.78 -1.73 C-1.86 74.55, 0.93 379.85, 1.32 456.26" stroke="#2f9e44" stroke-width="2" fill="none"></path></g></g><mask></mask><g stroke-linecap="round"><g transform="translate(261.47875467936205 67.1103515625) rotate(0 366.728515625 -0.18359375)"><path d="M-0.98 0.11 C121.01 -0.25, 610.59 -1.57, 732.94 -1.48 M0.71 -0.88 C122.41 -1.19, 609.81 -0.48, 731.72 -0.53" stroke="#1e1e1e" stroke-width="2" fill="none"></path></g><g transform="translate(261.47875467936205 67.1103515625) rotate(0 366.728515625 -0.18359375)"><path d="M708.22 8.01 C717.36 4.07, 724.34 1.12, 731.72 -0.53 M708.22 8.01 C717.8 4.93, 727.16 1.64, 731.72 -0.53" stroke="#1e1e1e" stroke-width="2" fill="none"></path></g><g transform="translate(261.47875467936205 67.1103515625) rotate(0 366.728515625 -0.18359375)"><path d="M708.23 -9.09 C717.46 -6.48, 724.43 -2.87, 731.72 -0.53 M708.23 -9.09 C717.73 -5.61, 727.09 -2.34, 731.72 -0.53" stroke="#1e1e1e" stroke-width="2" fill="none"></path></g></g><mask></mask><g stroke-linecap="round"><g transform="translate(144.93187967936205 129.7314453125) rotate(0 1.751953125 225.306640625)"><path d="M-0.28 0.61 C0.33 75.51, 3.45 375.27, 4.02 450.26 M1.78 -0.12 C2.24 74.88, 3.27 376.29, 3.35 451.61" stroke="#1e1e1e" stroke-width="2" fill="none"></path></g><g transform="translate(144.93187967936205 129.7314453125) rotate(0 1.751953125 225.306640625)"><path d="M-5.26 428.13 C-1.24 436.74, -0.02 443.03, 3.35 451.61 M-5.26 428.13 C-2.28 435.05, -0.5 441.37, 3.35 451.61" stroke="#1e1e1e" stroke-width="2" fill="none"></path></g><g transform="translate(144.93187967936205 129.7314453125) rotate(0 1.751953125 225.306640625)"><path d="M11.84 428.09 C10.23 436.68, 5.82 442.98, 3.35 451.61 M11.84 428.09 C9.8 435.19, 6.57 441.51, 3.35 451.61" stroke="#1e1e1e" stroke-width="2" fill="none"></path></g></g><mask></mask><g transform="translate(84.01781717936205 320.1962890625) rotate(0 6.5659942626953125 17.5)"><text x="0" y="24.528" font-family="Virgil, Segoe UI Emoji" font-size="28px" fill="#1e1e1e" text-anchor="start" style="white-space: pre;" direction="ltr" dominant-baseline="alphabetic">y</text></g><g transform="translate(569.9928385416667 10) rotate(0 7.8679962158203125 17.5)"><text x="0" y="24.528" font-family="Virgil, Segoe UI Emoji" font-size="28px" fill="#1e1e1e" text-anchor="start" style="white-space: pre;" direction="ltr" dominant-baseline="alphabetic">x</text></g><g transform="translate(288.56957499186205 19.6337890625) rotate(0 36.86198425292969 17.5)"><text x="0" y="24.528" font-family="Virgil, Segoe UI Emoji" font-size="28px" fill="#1e1e1e" text-anchor="start" style="white-space: pre;" direction="ltr" dominant-baseline="alphabetic">j = 0</text></g><g transform="translate(10 131.36664496527777) rotate(0 42.33598327636719 17.5)"><text x="0" y="24.528" font-family="Virgil, Segoe UI Emoji" font-size="28px" fill="#1e1e1e" text-anchor="start" style="white-space: pre;" direction="ltr" dominant-baseline="alphabetic"> i = 0</text></g><g transform="translate(304.07836405436205 155.5615234375) rotate(0 35.740478515625 12.5)"><text x="0" y="17.52" font-family="Virgil, Segoe UI Emoji" font-size="20px" fill="#e03131" text-anchor="start" style="white-space: pre;" direction="ltr" dominant-baseline="alphabetic">i = 0</text></g><g transform="translate(304.80028788248705 187.607421875) rotate(0 34.555829366048215 12.5)"><text x="0" y="17.52" font-family="Virgil, Segoe UI Emoji" font-size="20px" fill="#e03131" text-anchor="start" style="white-space: pre;" direction="ltr" dominant-baseline="alphabetic">j = 0</text></g><g transform="translate(299.04372321234814 495.4446072048611) rotate(0 43.513916015625 12.5)"><text x="0" y="17.52" font-family="Virgil, Segoe UI Emoji" font-size="20px" fill="#e03131" text-anchor="start" style="white-space: pre;" direction="ltr" dominant-baseline="alphabetic">i = y - 1</text></g><g transform="translate(299.00609842936205 527.23876953125) rotate(0 26.329994201660156 12.5)"><text x="0" y="17.52" font-family="Virgil, Segoe UI Emoji" font-size="20px" fill="#e03131" text-anchor="start" style="white-space: pre;" direction="ltr" dominant-baseline="alphabetic">j = 0</text></g><g transform="translate(877.0054202609592 155.14187282986114) rotate(0 35.740478515625 12.5)"><text x="0" y="17.52" font-family="Virgil, Segoe UI Emoji" font-size="20px" fill="#1971c2" text-anchor="start" style="white-space: pre;" direction="ltr" dominant-baseline="alphabetic">i = 0</text></g><g transform="translate(876.716059366862 186.93603515625) rotate(0 41.889984130859375 12.5)"><text x="0" y="17.52" font-family="Virgil, Segoe UI Emoji" font-size="20px" fill="#1971c2" text-anchor="start" style="white-space: pre;" direction="ltr" dominant-baseline="alphabetic">j = x - 1</text></g><g transform="translate(887.825190226237 493.93310546875) rotate(0 47.17494032118054 12.5)"><text x="0" y="17.52" font-family="Virgil, Segoe UI Emoji" font-size="20px" fill="#1971c2" text-anchor="start" style="white-space: pre;" direction="ltr" dominant-baseline="alphabetic">i = y - 1</text></g><g transform="translate(888.2904951307507 525.7728407118055) rotate(0 41.889984130859375 12.5)"><text x="0" y="17.52" font-family="Virgil, Segoe UI Emoji" font-size="20px" fill="#1971c2" text-anchor="start" style="white-space: pre;" direction="ltr" dominant-baseline="alphabetic">j = x - 1</text></g><g transform="translate(256.77367655436205 706.162109375) rotate(0 85.15994262695312 12.5)"><text x="0" y="17.52" font-family="Virgil, Segoe UI Emoji" font-size="20px" fill="#e03131" text-anchor="start" style="white-space: pre;" direction="ltr" dominant-baseline="alphabetic">red ==&gt; Print (A)</text></g><g transform="translate(256.71139017740893 749.04296875) rotate(0 88.43993377685547 12.5)"><text x="0" y="17.52" font-family="Virgil, Segoe UI Emoji" font-size="20px" fill="#1971c2" text-anchor="start" style="white-space: pre;" direction="ltr" dominant-baseline="alphabetic">blue ==&gt; Print (C)</text></g><g transform="translate(254.5202662150066 792.7294921875) rotate(0 96.86994171142578 12.5)"><text x="0" y="17.52" font-family="Virgil, Segoe UI Emoji" font-size="20px" fill="#1e1e1e" text-anchor="start" style="white-space: pre;" direction="ltr" dominant-baseline="alphabetic">Black ==&gt; Print (B)</text></g><g transform="translate(451.17425706651466 154.25184461805554) rotate(0 35.740478515625 25)"><text x="0" y="17.52" font-family="Virgil, Segoe UI Emoji" font-size="20px" fill="#1e1e1e" text-anchor="start" style="white-space: pre;" direction="ltr" dominant-baseline="alphabetic">i = 0</text><text x="0" y="42.519999999999996" font-family="Virgil, Segoe UI Emoji" font-size="20px" fill="#1e1e1e" text-anchor="start" style="white-space: pre;" direction="ltr" dominant-baseline="alphabetic">j = 1</text></g><g transform="translate(598.0167049831816 157.39583333333337) rotate(0 35.740478515625 25)"><text x="0" y="17.52" font-family="Virgil, Segoe UI Emoji" font-size="20px" fill="#1e1e1e" text-anchor="start" style="white-space: pre;" direction="ltr" dominant-baseline="alphabetic">i = 0</text><text x="0" y="42.519999999999996" font-family="Virgil, Segoe UI Emoji" font-size="20px" fill="#1e1e1e" text-anchor="start" style="white-space: pre;" direction="ltr" dominant-baseline="alphabetic">j = 2</text></g><g transform="translate(734.912863837348 155.22894965277783) rotate(0 35.740478515625 25)"><text x="0" y="17.52" font-family="Virgil, Segoe UI Emoji" font-size="20px" fill="#1e1e1e" text-anchor="start" style="white-space: pre;" direction="ltr" dominant-baseline="alphabetic">i = 0</text><text x="0" y="42.519999999999996" font-family="Virgil, Segoe UI Emoji" font-size="20px" fill="#1e1e1e" text-anchor="start" style="white-space: pre;" direction="ltr" dominant-baseline="alphabetic">j = 3</text></g><g transform="translate(297.9922909206814 278.0202907986112) rotate(0 35.740478515625 25)"><text x="0" y="17.52" font-family="Virgil, Segoe UI Emoji" font-size="20px" fill="#1e1e1e" text-anchor="start" style="white-space: pre;" direction="ltr" dominant-baseline="alphabetic">i = 1</text><text x="0" y="42.519999999999996" font-family="Virgil, Segoe UI Emoji" font-size="20px" fill="#1e1e1e" text-anchor="start" style="white-space: pre;" direction="ltr" dominant-baseline="alphabetic">j = 0</text></g><g transform="translate(297.04882303873705 402.900390625) rotate(0 35.740478515625 25)"><text x="0" y="17.52" font-family="Virgil, Segoe UI Emoji" font-size="20px" fill="#1e1e1e" text-anchor="start" style="white-space: pre;" direction="ltr" dominant-baseline="alphabetic">i = 2</text><text x="0" y="42.519999999999996" font-family="Virgil, Segoe UI Emoji" font-size="20px" fill="#1e1e1e" text-anchor="start" style="white-space: pre;" direction="ltr" dominant-baseline="alphabetic">j = 0</text></g><g transform="translate(428.4219784206816 505.7964409722223) rotate(0 55.195773654513914 25)"><text x="0" y="17.52" font-family="Virgil, Segoe UI Emoji" font-size="20px" fill="#1e1e1e" text-anchor="start" style="white-space: pre;" direction="ltr" dominant-baseline="alphabetic">i = y - 1</text><text x="0" y="42.519999999999996" font-family="Virgil, Segoe UI Emoji" font-size="20px" fill="#1e1e1e" text-anchor="start" style="white-space: pre;" direction="ltr" dominant-baseline="alphabetic">j = 1</text></g><g transform="translate(584.9627770317927 505.25716145833326) rotate(0 42.62849934895837 25)"><text x="0" y="17.52" font-family="Virgil, Segoe UI Emoji" font-size="20px" fill="#1e1e1e" text-anchor="start" style="white-space: pre;" direction="ltr" dominant-baseline="alphabetic">i = y - 1</text><text x="0" y="42.519999999999996" font-family="Virgil, Segoe UI Emoji" font-size="20px" fill="#1e1e1e" text-anchor="start" style="white-space: pre;" direction="ltr" dominant-baseline="alphabetic">j = 2</text></g><g transform="translate(724.958979288737 502.8515625) rotate(0 46.92103407118054 25)"><text x="0" y="17.52" font-family="Virgil, Segoe UI Emoji" font-size="20px" fill="#1e1e1e" text-anchor="start" style="white-space: pre;" direction="ltr" dominant-baseline="alphabetic">i = y - 1</text><text x="0" y="42.519999999999996" font-family="Virgil, Segoe UI Emoji" font-size="20px" fill="#1e1e1e" text-anchor="start" style="white-space: pre;" direction="ltr" dominant-baseline="alphabetic">j = 3</text></g><g transform="translate(878.943354288737 386.4501953125) rotate(0 51.777804904513914 25)"><text x="0" y="17.52" font-family="Virgil, Segoe UI Emoji" font-size="20px" fill="#1e1e1e" text-anchor="start" style="white-space: pre;" direction="ltr" dominant-baseline="alphabetic">i = 2</text><text x="0" y="42.519999999999996" font-family="Virgil, Segoe UI Emoji" font-size="20px" fill="#1e1e1e" text-anchor="start" style="white-space: pre;" direction="ltr" dominant-baseline="alphabetic">j = x - 1</text></g><g transform="translate(876.296869913737 273.30078125) rotate(0 55.699245876736086 25)"><text x="0" y="17.52" font-family="Virgil, Segoe UI Emoji" font-size="20px" fill="#1e1e1e" text-anchor="start" style="white-space: pre;" direction="ltr" dominant-baseline="alphabetic">i = 1</text><text x="0" y="42.519999999999996" font-family="Virgil, Segoe UI Emoji" font-size="20px" fill="#1e1e1e" text-anchor="start" style="white-space: pre;" direction="ltr" dominant-baseline="alphabetic">j = x - 1</text></g><g transform="translate(255.73652564154736 835.7649739583333) rotate(0 118.99990844726562 12.5)"><text x="0" y="17.52" font-family="Virgil, Segoe UI Emoji" font-size="20px" fill="#f08c00" text-anchor="start" style="white-space: pre;" direction="ltr" dominant-baseline="alphabetic">Empty ==&gt; Print (space)</text></g><g transform="translate(172.90982564290266 183.9153374565975) rotate(0 26.52613639831543 8.906249999999993)"><text x="0" y="14.33349609374999" font-family="Cascadia, Segoe UI Emoji" font-size="14.84374999999999px" fill="#0c8599" text-anchor="start" style="white-space: pre;" direction="ltr" dominant-baseline="alphabetic">i = 0</text></g><g transform="translate(175.77434137132354 298.6766221788197) rotate(0 26.52613639831543 8.90625)"><text x="0" y="14.33349609374999" font-family="Cascadia, Segoe UI Emoji" font-size="14.84374999999999px" fill="#0c8599" text-anchor="start" style="white-space: pre;" direction="ltr" dominant-baseline="alphabetic">i = 1</text></g><g transform="translate(174.45489692687897 406.1201985677086) rotate(0 26.52613639831543 8.90625)"><text x="0" y="14.33349609374999" font-family="Cascadia, Segoe UI Emoji" font-size="14.84374999999999px" fill="#0c8599" text-anchor="start" style="white-space: pre;" direction="ltr" dominant-baseline="alphabetic">i = 2</text></g><g transform="translate(165.22746637132354 522.9083930121532) rotate(0 34.30825445387097 7.6046029381235485)"><text x="0" y="12.238657853542566" font-family="Cascadia, Segoe UI Emoji" font-size="12.674338230205894px" fill="#0c8599" text-anchor="start" style="white-space: pre;" direction="ltr" dominant-baseline="alphabetic">i = y - 1</text></g><g transform="translate(305.03649414910115 607.5481499565975) rotate(0 26.52613639831543 8.90625)"><text x="0" y="14.33349609374999" font-family="Cascadia, Segoe UI Emoji" font-size="14.84374999999999px" fill="#0c8599" text-anchor="start" style="white-space: pre;" direction="ltr" dominant-baseline="alphabetic">j = 0</text></g><g transform="translate(452.94448026021246 612.8215874565975) rotate(0 26.52613639831543 8.90625)"><text x="0" y="14.33349609374999" font-family="Cascadia, Segoe UI Emoji" font-size="14.84374999999999px" fill="#0c8599" text-anchor="start" style="white-space: pre;" direction="ltr" dominant-baseline="alphabetic">j = 1</text></g><g transform="translate(596.3385774824346 614.5446777343752) rotate(0 26.52613639831543 8.90625)"><text x="0" y="14.33349609374999" font-family="Cascadia, Segoe UI Emoji" font-size="14.84374999999999px" fill="#0c8599" text-anchor="start" style="white-space: pre;" direction="ltr" dominant-baseline="alphabetic">j = 2</text></g><g transform="translate(742.8185590461437 612.0186360677086) rotate(0 22.93243955682823 7.6996527777777715)"><text x="0" y="12.391628689236093" font-family="Cascadia, Segoe UI Emoji" font-size="12.83275462962961px" fill="#0c8599" text-anchor="start" style="white-space: pre;" direction="ltr" dominant-baseline="alphabetic">j = 3</text></g><g transform="translate(886.9375358157679 612.326359518474) rotate(0 34.30825445387097 7.6046029381235485)"><text x="0" y="12.238657853542566" font-family="Cascadia, Segoe UI Emoji" font-size="12.674338230205894px" fill="#0c8599" text-anchor="start" style="white-space: pre;" direction="ltr" dominant-baseline="alphabetic">j = x - 1</text></g><g stroke-linecap="round"><g transform="translate(1269.0865020751942 161.88151041666686) rotate(0 14.210069444444457 0.07378472222222854)"><path d="M0.1 0.18 C4.86 0.27, 23.87 0.44, 28.64 0.45 M-0.51 -0.21 C4.19 -0.26, 23.48 -0.54, 28.31 -0.36" stroke="#e03131" stroke-width="2" fill="none"></path></g><g transform="translate(1269.0865020751942 161.88151041666686) rotate(0 14.210069444444457 0.07378472222222854)"><path d="M14.92 4.4 C19.4 3.16, 23.8 1.76, 28.31 -0.36 M14.92 4.4 C19.17 3.06, 23.74 1.2, 28.31 -0.36" stroke="#e03131" stroke-width="2" fill="none"></path></g><g transform="translate(1269.0865020751942 161.88151041666686) rotate(0 14.210069444444457 0.07378472222222854)"><path d="M15 -5.32 C19.44 -3.48, 23.82 -1.81, 28.31 -0.36 M15 -5.32 C19.19 -3.59, 23.74 -2.39, 28.31 -0.36" stroke="#e03131" stroke-width="2" fill="none"></path></g></g><mask></mask><g transform="translate(1266.412890964083 112.01605902777794) rotate(0 35.94996643066406 12.5)"><text x="0" y="17.52" font-family="Virgil, Segoe UI Emoji" font-size="20px" fill="#f08c00" text-anchor="start" style="white-space: pre;" direction="ltr" dominant-baseline="alphabetic">Notes :</text></g><g transform="translate(1314.233203464083 149.05598958333354) rotate(0 177.28988647460938 12.5)"><text x="0" y="17.52" font-family="Virgil, Segoe UI Emoji" font-size="20px" fill="#e03131" text-anchor="start" style="white-space: pre;" direction="ltr" dominant-baseline="alphabetic">while i &lt; y print A  if i=0 or i=y-1 . </text></g><g stroke-linecap="round"><g transform="translate(1272.8075065234443 256.3953993055558) rotate(0 14.210069444444457 0.07378472222222854)"><path d="M0.5 0.34 C5.3 0.2, 23.66 -0.25, 28.35 -0.28 M0.1 0.03 C4.85 0.19, 23.16 0.08, 27.88 0.21" stroke="#1971c2" stroke-width="2" fill="none"></path></g><g transform="translate(1272.8075065234443 256.3953993055558) rotate(0 14.210069444444457 0.07378472222222854)"><path d="M14.49 4.95 C17.91 3.73, 19.95 3.04, 27.88 0.21 M14.49 4.95 C18.75 3.16, 22.47 1.88, 27.88 0.21" stroke="#1971c2" stroke-width="2" fill="none"></path></g><g transform="translate(1272.8075065234443 256.3953993055558) rotate(0 14.210069444444457 0.07378472222222854)"><path d="M14.57 -4.77 C18.03 -3.8, 20.04 -2.3, 27.88 0.21 M14.57 -4.77 C18.8 -3.59, 22.49 -1.92, 27.88 0.21" stroke="#1971c2" stroke-width="2" fill="none"></path></g></g><mask></mask><g transform="translate(1317.9498676345554 243.56553819444468) rotate(0 177.16989135742188 12.5)"><text x="0" y="17.52" font-family="Virgil, Segoe UI Emoji" font-size="20px" fill="#1971c2" text-anchor="start" style="white-space: pre;" direction="ltr" dominant-baseline="alphabetic">while i &lt; y print C  if i=0 or i=y-1 . </text></g><g stroke-linecap="round"><g transform="translate(1269.5255010751255 208.0061848958336) rotate(0 14.210069444444457 0.07378472222222854)"><path d="M0.16 0.2 C4.92 0.15, 23.62 -0.35, 28.3 -0.37 M-0.43 -0.17 C4.27 -0.17, 23.11 -0.07, 27.81 0.07" stroke="#1e1e1e" stroke-width="2" fill="none"></path></g><g transform="translate(1269.5255010751255 208.0061848958336) rotate(0 14.210069444444457 0.07378472222222854)"><path d="M14.38 4.72 C18.03 3.38, 20.49 2.13, 27.81 0.07 M14.38 4.72 C18.49 3.57, 22.17 2.22, 27.81 0.07" stroke="#1e1e1e" stroke-width="2" fill="none"></path></g><g transform="translate(1269.5255010751255 208.0061848958336) rotate(0 14.210069444444457 0.07378472222222854)"><path d="M14.54 -5 C18.15 -3.89, 20.57 -2.69, 27.81 0.07 M14.54 -5 C18.64 -3.3, 22.28 -1.8, 27.81 0.07" stroke="#1e1e1e" stroke-width="2" fill="none"></path></g></g><mask></mask><g transform="translate(1313.639216352903 195.17198350694463) rotate(0 285.6798400878906 12.5)"><text x="0" y="17.52" font-family="Virgil, Segoe UI Emoji" font-size="20px" fill="#1e1e1e" text-anchor="start" style="white-space: pre;" direction="ltr" dominant-baseline="alphabetic">while j &lt; x print B  if i=0 or i=y-1 ELSE if j=0 or j=x-1 . </text></g><g stroke-linecap="round"><g transform="translate(1029.6572486029718 273.80913628473286) rotate(0 0.6705729166666288 86.79687499999487)"><path d="M1.12 -1.15 C1.35 27.79, 0.76 144.56, 0.63 173.78 M0.25 0.86 C0.94 30.01, 2.55 146.88, 2.97 175.42" stroke="#6741d9" stroke-width="2" fill="none"></path></g><g transform="translate(1029.6572486029718 273.80913628473286) rotate(0 0.6705729166666288 86.79687499999487)"><path d="M-5.92 152.05 C-5.7 156.35, -1.34 161.46, 2.97 175.42 M-5.92 152.05 C-2.47 159.35, 1.02 168.91, 2.97 175.42" stroke="#6741d9" stroke-width="2" fill="none"></path></g><g transform="translate(1029.6572486029718 273.80913628473286) rotate(0 0.6705729166666288 86.79687499999487)"><path d="M11.18 151.81 C7.32 156.33, 7.6 161.49, 2.97 175.42 M11.18 151.81 C8.68 159.17, 6.22 168.82, 2.97 175.42" stroke="#6741d9" stroke-width="2" fill="none"></path></g></g><mask></mask><g stroke-linecap="round"><g transform="translate(431.5306234356801 655.1587423506859) rotate(0 199.93272569444446 1.1480034722222001)"><path d="M0.42 -0.02 C67.22 0.35, 334.25 1.04, 400.76 1.23 M-0.81 -1.08 C65.91 -0.51, 333.73 1.72, 400.28 2.2" stroke="#6741d9" stroke-width="2" fill="none"></path></g><g transform="translate(431.5306234356801 655.1587423506859) rotate(0 199.93272569444446 1.1480034722222001)"><path d="M376.72 10.57 C383.76 9.48, 389.04 4.82, 400.28 2.2 M376.72 10.57 C380.69 9.56, 385.81 6.91, 400.28 2.2" stroke="#6741d9" stroke-width="2" fill="none"></path></g><g transform="translate(431.5306234356801 655.1587423506859) rotate(0 199.93272569444446 1.1480034722222001)"><path d="M376.85 -6.53 C383.72 -2.53, 388.95 -2.1, 400.28 2.2 M376.85 -6.53 C380.67 -4.08, 385.76 -3.27, 400.28 2.2" stroke="#6741d9" stroke-width="2" fill="none"></path></g></g><mask></mask><g stroke-linecap="round"><g transform="translate(228.8202386543103 261.68850249343274) rotate(0 0.6705729166666288 86.796875)"><path d="M0.75 0.38 C0.96 29.19, 0.3 144.95, 0.21 173.96 M-0.31 -0.47 C0.34 28.49, 1.86 143.19, 2.33 172.02" stroke="#6741d9" stroke-width="2" fill="none"></path></g><g transform="translate(228.8202386543103 261.68850249343274) rotate(0 0.6705729166666288 86.796875)"><path d="M-6.56 148.66 C-3.83 151.71, -1.96 156.74, 2.33 172.02 M-6.56 148.66 C-3.97 158.17, -0.41 165.74, 2.33 172.02" stroke="#6741d9" stroke-width="2" fill="none"></path></g><g transform="translate(228.8202386543103 261.68850249343274) rotate(0 0.6705729166666288 86.796875)"><path d="M10.54 148.41 C9.62 151.62, 7.85 156.7, 2.33 172.02 M10.54 148.41 C6.8 158, 4.05 165.66, 2.33 172.02" stroke="#6741d9" stroke-width="2" fill="none"></path></g></g><mask></mask><g transform="translate(252.71463182237312 885.1331922743061) rotate(0 178.89279344346778 12.5)"><text x="0" y="17.52" font-family="Virgil, Segoe UI Emoji" font-size="20px" fill="#6741d9" text-anchor="start" style="white-space: pre;" direction="ltr" dominant-baseline="alphabetic">lines ==&gt; Sides (Other Function)</text></g><g stroke-linecap="round"><g transform="translate(1382.7323354085277 364.8345269097233) rotate(0 47.67578125 0.09548611111108585)"><path d="M-1.04 -0.86 C14.84 -1, 78.9 -0.98, 95.12 -0.85 M0.62 1.31 C16.33 1.27, 78.15 0.17, 94.05 0.14" stroke="#6741d9" stroke-width="2" fill="none"></path></g><g transform="translate(1382.7323354085277 364.8345269097233) rotate(0 47.67578125 0.09548611111108585)"><path d="M70.66 8.94 C75.97 6.23, 82.41 5.65, 94.05 0.14 M70.66 8.94 C76.97 6.54, 84.6 3.44, 94.05 0.14" stroke="#6741d9" stroke-width="2" fill="none"></path></g><g transform="translate(1382.7323354085277 364.8345269097233) rotate(0 47.67578125 0.09548611111108585)"><path d="M70.47 -8.16 C75.84 -5.94, 82.33 -1.6, 94.05 0.14 M70.47 -8.16 C76.79 -5.79, 84.48 -4.1, 94.05 0.14" stroke="#6741d9" stroke-width="2" fill="none"></path></g></g><mask></mask><g stroke-linecap="round"><g transform="translate(1383.2112764047656 408.45482032289425) rotate(0 47.67578125 0.09548611111108585)"><path d="M-0.24 1.15 C15.79 1.07, 79.7 -0.38, 95.43 -0.61 M-1.82 0.71 C14.12 0.78, 78.15 0.48, 94.52 0.5" stroke="#6741d9" stroke-width="2" fill="none"></path></g><g transform="translate(1383.2112764047656 408.45482032289425) rotate(0 47.67578125 0.09548611111108585)"><path d="M71.05 9.1 C78.62 7.21, 81.02 3.02, 94.52 0.5 M71.05 9.1 C78.17 7.78, 83.39 3.81, 94.52 0.5" stroke="#6741d9" stroke-width="2" fill="none"></path></g><g transform="translate(1383.2112764047656 408.45482032289425) rotate(0 47.67578125 0.09548611111108585)"><path d="M71.01 -8 C78.58 -5.78, 80.98 -5.85, 94.52 0.5 M71.01 -8 C78.04 -4.84, 83.27 -4.35, 94.52 0.5" stroke="#6741d9" stroke-width="2" fill="none"></path></g></g><mask></mask><g transform="translate(1275.4944610595694 353.2156032986121) rotate(0 35.740478515625 12.5)"><text x="0" y="17.52" font-family="Virgil, Segoe UI Emoji" font-size="20px" fill="#e03131" text-anchor="start" style="white-space: pre;" direction="ltr" dominant-baseline="alphabetic">i = 0</text></g><g transform="translate(1272.6428985595692 397.25640190972337) rotate(0 43.513916015625 12.5)"><text x="0" y="17.52" font-family="Virgil, Segoe UI Emoji" font-size="20px" fill="#e03131" text-anchor="start" style="white-space: pre;" direction="ltr" dominant-baseline="alphabetic">i = y - 1</text></g><g transform="translate(1505.5448354085274 350.98904079861234) rotate(0 51.62995910644531 12.5)"><text x="0" y="17.52" font-family="Virgil, Segoe UI Emoji" font-size="20px" fill="#1e1e1e" text-anchor="start" style="white-space: pre;" direction="ltr" dominant-baseline="alphabetic">First Line </text></g><g transform="translate(1509.0364040798602 392.42567274305674) rotate(0 52.059967041015625 12.5)"><text x="0" y="17.52" font-family="Virgil, Segoe UI Emoji" font-size="20px" fill="#1e1e1e" text-anchor="start" style="white-space: pre;" direction="ltr" dominant-baseline="alphabetic">Last Line </text></g><g transform="translate(1088.921571519639 510.3857421875012) rotate(0 44.79998016357422 17.5)"><text x="0" y="24.528" font-family="Virgil, Segoe UI Emoji" font-size="28px" fill="#e03131" text-anchor="start" style="white-space: pre;" direction="ltr" dominant-baseline="alphabetic">K = 2;</text></g><g transform="translate(1081.0486746893978 174.8996310763901) rotate(0 36.939737108018676 14.429591196916114)"><text x="0" y="20.224515021597625" font-family="Virgil, Segoe UI Emoji" font-size="23.087345915065786px" fill="#e03131" text-anchor="start" style="white-space: pre;" direction="ltr" dominant-baseline="alphabetic">K = 2;</text></g><g transform="translate(1084.1476330227313 399.022894965279) rotate(0 44.46398162841797 17.5)"><text x="0" y="24.528" font-family="Virgil, Segoe UI Emoji" font-size="28px" fill="#e03131" text-anchor="start" style="white-space: pre;" direction="ltr" dominant-baseline="alphabetic">K = 0;</text></g><g transform="translate(1095.49745941162 278.9230685763901) rotate(0 44.46398162841797 17.5)"><text x="0" y="24.528" font-family="Virgil, Segoe UI Emoji" font-size="28px" fill="#e03131" text-anchor="start" style="white-space: pre;" direction="ltr" dominant-baseline="alphabetic">K = 0;</text></g><g stroke-linecap="round"><g transform="translate(1336.1799023567776 627.2477213541678) rotate(0 14.210069444444457 0.07378472222222854)"><path d="M0.33 -0.29 C5.09 -0.31, 23.73 -0.09, 28.41 -0.11 M-0.16 0.75 C4.54 0.8, 23.27 0.6, 27.97 0.46" stroke="#e03131" stroke-width="2" fill="none"></path></g><g transform="translate(1336.1799023567776 627.2477213541678) rotate(0 14.210069444444457 0.07378472222222854)"><path d="M14.71 5.56 C17.95 4.12, 21.62 2.74, 27.97 0.46 M14.71 5.56 C17.73 4.2, 20.3 3.25, 27.97 0.46" stroke="#e03131" stroke-width="2" fill="none"></path></g><g transform="translate(1336.1799023567776 627.2477213541678) rotate(0 14.210069444444457 0.07378472222222854)"><path d="M14.53 -4.16 C17.82 -2.95, 21.54 -1.67, 27.97 0.46 M14.53 -4.16 C17.6 -3.54, 20.21 -2.5, 27.97 0.46" stroke="#e03131" stroke-width="2" fill="none"></path></g></g><mask></mask><g transform="translate(1381.3266037456663 614.4222005208344) rotate(0 356.97979736328125 50.00000000000003)"><text x="0" y="17.52" font-family="Virgil, Segoe UI Emoji" font-size="20px" fill="#1e1e1e" text-anchor="start" style="white-space: pre;" direction="ltr" dominant-baseline="alphabetic">when we add A and C the lines (Width) increment to x + 2 </text><text x="0" y="42.519999999999996" font-family="Virgil, Segoe UI Emoji" font-size="20px" fill="#1e1e1e" text-anchor="start" style="white-space: pre;" direction="ltr" dominant-baseline="alphabetic">, So we need to mins 2 in the first line and the last , but in </text><text x="0" y="67.52" font-family="Virgil, Segoe UI Emoji" font-size="20px" fill="#1e1e1e" text-anchor="start" style="white-space: pre;" direction="ltr" dominant-baseline="alphabetic">the middle we d'ont need this , That's why we declare another</text><text x="0" y="92.52" font-family="Virgil, Segoe UI Emoji" font-size="20px" fill="#1e1e1e" text-anchor="start" style="white-space: pre;" direction="ltr" dominant-baseline="alphabetic">variable namde K , it take 2 when we add A and take 0 when we d'ont.</text></g><g transform="translate(1220.7965715196387 608.6192491319455) rotate(0 49.895973205566406 17.5)"><text x="0" y="24.528" font-family="Virgil, Segoe UI Emoji" font-size="28px" fill="#e03131" text-anchor="start" style="white-space: pre;" direction="ltr" dominant-baseline="alphabetic">Why K :</text></g><g stroke-linecap="round"><g transform="translate(430.40992761201437 98.27311459916717) rotate(0 199.93272569444446 1.1480034722222001)"><path d="M-0.69 -0.8 C65.75 -0.44, 332.04 2.59, 398.93 3.2 M1.15 1.39 C67.94 1.94, 334.63 1.65, 401.15 1.55" stroke="#6741d9" stroke-width="2" fill="none"></path></g><g transform="translate(430.40992761201437 98.27311459916717) rotate(0 199.93272569444446 1.1480034722222001)"><path d="M377.67 10.12 C383.82 5.94, 394.22 6.02, 401.15 1.55 M377.67 10.12 C384.94 6.32, 394.9 4.73, 401.15 1.55" stroke="#6741d9" stroke-width="2" fill="none"></path></g><g transform="translate(430.40992761201437 98.27311459916717) rotate(0 199.93272569444446 1.1480034722222001)"><path d="M377.65 -6.98 C383.95 -5.66, 394.36 -0.07, 401.15 1.55 M377.65 -6.98 C384.81 -4.87, 394.78 -0.56, 401.15 1.55" stroke="#6741d9" stroke-width="2" fill="none"></path></g></g><mask></mask><g transform="translate(429.07007102360694 1036.0240536644374) rotate(0 206.05189514160156 17.5)"><text x="0" y="24.528" font-family="Virgil, Segoe UI Emoji" font-size="28px" fill="#e03131" text-anchor="start" style="white-space: pre;" direction="ltr" dominant-baseline="alphabetic">ex09 : FT_Strcapitalize(str);</text></g><g transform="translate(434.3174668569402 1152.0657203311039) rotate(0 206.68191528320312 35)"><text x="0" y="24.528" font-family="Virgil, Segoe UI Emoji" font-size="28px" fill="#1e1e1e" text-anchor="start" style="white-space: pre;" direction="ltr" dominant-baseline="alphabetic">1 : Check if the str is empty ;</text><text x="0" y="59.528" font-family="Virgil, Segoe UI Emoji" font-size="28px" fill="#1e1e1e" text-anchor="start" style="white-space: pre;" direction="ltr" dominant-baseline="alphabetic">2 : </text></g><g stroke-linecap="round"><g transform="translate(442.2666856069402 1263.5500953311039) rotate(0 31.259765625000114 -0.07161458333337123)"><path d="M-0.44 -0.17 C9.68 -0.45, 51.46 -0.98, 61.87 -0.84 M1.54 -1.31 C11.95 -1.52, 54.32 0.32, 64.24 0.33" stroke="#2f9e44" stroke-width="2" fill="none"></path></g><g transform="translate(442.2666856069402 1263.5500953311039) rotate(0 31.259765625000114 -0.07161458333337123)"><path d="M40.53 8.29 C49.56 4.14, 58.06 1.27, 64.24 0.33 M40.53 8.29 C48.39 4.86, 58.55 3.07, 64.24 0.33" stroke="#2f9e44" stroke-width="2" fill="none"></path></g><g transform="translate(442.2666856069402 1263.5500953311039) rotate(0 31.259765625000114 -0.07161458333337123)"><path d="M40.97 -8.81 C49.94 -6.2, 58.27 -2.31, 64.24 0.33 M40.97 -8.81 C48.69 -5.91, 58.68 -1.36, 64.24 0.33" stroke="#2f9e44" stroke-width="2" fill="none"></path></g></g><mask></mask><g transform="translate(530.8864772736069 1246.3951474144374) rotate(0 364.7698669433594 17.5)"><text x="0" y="24.528" font-family="Virgil, Segoe UI Emoji" font-size="28px" fill="#2f9e44" text-anchor="start" style="white-space: pre;" direction="ltr" dominant-baseline="alphabetic">check the space and other Caracthers ( + , - , ...); </text></g><g stroke-linecap="round"><g transform="translate(445.001996436185 1319.5331682477708) rotate(0 31.259765625000114 -0.07161458333337123)"><path d="M0.96 0.12 C11.34 -0.11, 52.26 -1.02, 62.51 -0.98 M0.01 -0.86 C10.2 -1, 51.29 0.26, 61.56 0.12" stroke="#2f9e44" stroke-width="2" fill="none"></path></g><g transform="translate(445.001996436185 1319.5331682477708) rotate(0 31.259765625000114 -0.07161458333337123)"><path d="M37.98 8.41 C45.74 5.54, 51.74 2.79, 61.56 0.12 M37.98 8.41 C45.81 5.27, 54.53 1.96, 61.56 0.12" stroke="#2f9e44" stroke-width="2" fill="none"></path></g><g transform="translate(445.001996436185 1319.5331682477708) rotate(0 31.259765625000114 -0.07161458333337123)"><path d="M38.17 -8.69 C45.93 -6.05, 51.87 -3.3, 61.56 0.12 M38.17 -8.69 C46 -5.98, 54.65 -3.44, 61.56 0.12" stroke="#2f9e44" stroke-width="2" fill="none"></path></g></g><mask></mask><g transform="translate(533.6217881028515 1302.3782203311039) rotate(0 392.86785888671875 17.5)"><text x="0" y="24.528" font-family="Virgil, Segoe UI Emoji" font-size="28px" fill="#2f9e44" text-anchor="start" style="white-space: pre;" direction="ltr" dominant-baseline="alphabetic">check the charachter after space or other caracthers; </text></g><g stroke-linecap="round"><g transform="translate(444.6504339361852 1380.9980119977708) rotate(0 31.259765625000114 -0.07161458333337123)"><path d="M-0.26 -0.79 C10.21 -0.8, 51.54 -0.66, 61.82 -0.44 M1.81 1.41 C12.75 1.61, 53.85 1.41, 64.16 0.94" stroke="#2f9e44" stroke-width="2" fill="none"></path></g><g transform="translate(444.6504339361852 1380.9980119977708) rotate(0 31.259765625000114 -0.07161458333337123)"><path d="M40.86 10 C44.64 6.91, 50.53 4.21, 64.16 0.94 M40.86 10 C49.96 6.54, 57 2.36, 64.16 0.94" stroke="#2f9e44" stroke-width="2" fill="none"></path></g><g transform="translate(444.6504339361852 1380.9980119977708) rotate(0 31.259765625000114 -0.07161458333337123)"><path d="M40.49 -7.1 C44.3 -6.47, 50.27 -5.44, 64.16 0.94 M40.49 -7.1 C49.85 -4.41, 57.03 -2.45, 64.16 0.94" stroke="#2f9e44" stroke-width="2" fill="none"></path></g></g><mask></mask><g transform="translate(533.2702256028517 1363.8430640811039) rotate(0 249.60589599609375 17.5)"><text x="0" y="24.528" font-family="Virgil, Segoe UI Emoji" font-size="28px" fill="#2f9e44" text-anchor="start" style="white-space: pre;" direction="ltr" dominant-baseline="alphabetic">if it lowercse change to uppercase; </text></g><g stroke-linecap="round"><g transform="translate(451.050173519518 1443.7258765811039) rotate(0 31.259765625000114 -0.07161458333337123)"><path d="M0.73 0.52 C11.25 0.42, 51.47 0.08, 61.94 -0.08 M-0.34 -0.25 C10.07 -0.18, 50.08 1.34, 60.69 1.5" stroke="#2f9e44" stroke-width="2" fill="none"></path></g><g transform="translate(451.050173519518 1443.7258765811039) rotate(0 31.259765625000114 -0.07161458333337123)"><path d="M36.97 9.4 C42.61 6.69, 46.64 7.77, 60.69 1.5 M36.97 9.4 C43.46 7.62, 49.19 4.58, 60.69 1.5" stroke="#2f9e44" stroke-width="2" fill="none"></path></g><g transform="translate(451.050173519518 1443.7258765811039) rotate(0 31.259765625000114 -0.07161458333337123)"><path d="M37.44 -7.69 C43.05 -6.94, 46.99 -2.42, 60.69 1.5 M37.44 -7.69 C43.9 -4.77, 49.5 -3.11, 60.69 1.5" stroke="#2f9e44" stroke-width="2" fill="none"></path></g></g><mask></mask><g transform="translate(539.6699651861845 1426.5709286644374) rotate(0 486.03778076171875 17.5)"><text x="0" y="24.528" font-family="Virgil, Segoe UI Emoji" font-size="28px" fill="#2f9e44" text-anchor="start" style="white-space: pre;" direction="ltr" dominant-baseline="alphabetic">if d'ont have space after letter change to lowercase if it uppercase;</text></g><g transform="translate(2238.9370725117046 212.96473911830583) rotate(0 94.89596557617188 22.5)"><text x="0" y="31.536" font-family="Virgil, Segoe UI Emoji" font-size="36px" fill="#2f9e44" text-anchor="start" style="white-space: pre;" direction="ltr" dominant-baseline="alphabetic">Recurtion :</text></g><g stroke-linecap="round"><g transform="translate(2172.921447511705 190.46473911830589) rotate(0 -2.553013392857167 686.54296875)"><path d="M-0.54 -0.52 C-1.28 228.59, -4.43 1144.76, -5.24 1373.71 M1.38 1.83 C0.54 230.67, -4.98 1143.13, -6.26 1371.91" stroke="#2f9e44" stroke-width="2" fill="none"></path></g></g><mask></mask><g stroke-linecap="round" transform="translate(2248.189304654562 409.7284807477703) rotate(0 255.01953124999994 475.9654017857141)"><path d="M32 0 C170.42 -0.77, 310.39 -0.61, 478.04 0 C497.19 2.06, 512.04 13.55, 510.04 32 C514.58 351.59, 514.01 668.77, 510.04 919.93 C508.02 944.17, 502.4 949.54, 478.04 951.93 C374.04 955.4, 267.86 954.1, 32 951.93 C7.19 954.68, 3.14 939.96, 0 919.93 C-4.29 601.42, -3.18 282.26, 0 32 C0.14 7.76, 14.13 0.55, 32 0" stroke="none" stroke-width="0" fill="#ffffff"></path><path d="M32 0 C131.04 -0.84, 230.37 -0.99, 478.04 0 M32 0 C201.99 1.18, 372.26 1.23, 478.04 0 M478.04 0 C500.78 -0.02, 508.1 9.46, 510.04 32 M478.04 0 C501.1 0.82, 508.1 10.18, 510.04 32 M510.04 32 C509.09 221.12, 508.81 408.82, 510.04 919.93 M510.04 32 C510.89 337.32, 510.65 642.38, 510.04 919.93 M510.04 919.93 C509.35 941.21, 498.05 950.47, 478.04 951.93 M510.04 919.93 C509.16 942.53, 498.28 951.65, 478.04 951.93 M478.04 951.93 C337.67 953.58, 198.18 953.37, 32 951.93 M478.04 951.93 C340.35 949.66, 202.3 950.35, 32 951.93 M32 951.93 C12.33 953.9, -0.16 942.31, 0 919.93 M32 951.93 C12.23 953.99, 0.07 940.49, 0 919.93 M0 919.93 C-1.53 615.54, -2.08 312.21, 0 32 M0 919.93 C-3.12 724.41, -3.12 530.03, 0 32 M0 32 C-1.17 8.75, 10.9 -0.46, 32 0 M0 32 C0.36 9.27, 9.53 0.71, 32 0" stroke="#1e1e1e" stroke-width="2" fill="none"></path></g><g transform="translate(2437.7484564402766 324.38433389272797) rotate(0 68.02020372663219 30.054885927521127)"><text x="0" y="42.12492811601365" font-family="Virgil, Segoe UI Emoji" font-size="48.08781748403384px" fill="#e03131" text-anchor="start" style="white-space: pre;" direction="ltr" dominant-baseline="alphabetic">Stack</text></g><g stroke-linecap="round" transform="translate(2272.8154207259904 1164.3155343191988) rotate(0 230.7421875 88.14174107142844)"><path d="M-1.72 0.55 L460.38 -1.28 L459.6 176.23 L0.47 176.21" stroke="none" stroke-width="0" fill="#ffffff"></path><path d="M0 0 C152.57 -2.13, 304.18 -1.81, 461.48 0 M0 0 C115.46 1.26, 232.06 1, 461.48 0 M461.48 0 C462.16 38.76, 462.64 75.65, 461.48 176.28 M461.48 0 C461.91 62.93, 461.75 124.7, 461.48 176.28 M461.48 176.28 C278.1 176.63, 93.53 176.52, 0 176.28 M461.48 176.28 C320.63 174.25, 179.71 174.72, 0 176.28 M0 176.28 C0.71 125.3, 0.32 72.82, 0 0 M0 176.28 C-1.01 125.35, -0.79 76.09, 0 0" stroke="#1971c2" stroke-width="2" fill="none"></path></g><g stroke-linecap="round"><g transform="translate(2784.7350635831335 1254.7396414620557) rotate(0 36.336495535714334 0.234375)"><path d="M-0.02 0.13 C11.84 0.34, 59.92 0.72, 72.04 0.86 M-1.49 -0.85 C10.69 -0.97, 62.18 -1.01, 74.42 -1.06" stroke="#1971c2" stroke-width="2" fill="none"></path></g><g transform="translate(2784.7350635831335 1254.7396414620557) rotate(0 36.336495535714334 0.234375)"><path d="M50.95 7.54 C59.99 3.27, 69.22 1.21, 74.42 -1.06 M50.95 7.54 C58.52 5.42, 66.21 1.15, 74.42 -1.06" stroke="#1971c2" stroke-width="2" fill="none"></path></g><g transform="translate(2784.7350635831335 1254.7396414620557) rotate(0 36.336495535714334 0.234375)"><path d="M50.91 -9.56 C59.9 -7.42, 69.15 -3.07, 74.42 -1.06 M50.91 -9.56 C58.6 -5.88, 66.31 -4.35, 74.42 -1.06" stroke="#1971c2" stroke-width="2" fill="none"></path></g></g><mask></mask><g transform="translate(2888.155822511705 1239.9963378906273) rotate(0 153.73391723632812 17.5)"><text x="0" y="24.528" font-family="Virgil, Segoe UI Emoji" font-size="28px" fill="#1e1e1e" text-anchor="start" style="white-space: pre;" direction="ltr" dominant-baseline="alphabetic">main() : caller function</text></g><g stroke-opacity="0.8" fill-opacity="0.8" stroke-linecap="round" transform="translate(2905.148010011704 1288.4617396763415) rotate(0 201.24162946428567 67.5)"><path d="M0.51 -0.77 L403.29 0.86 L403.68 133.72 L-0.04 136.62" stroke="none" stroke-width="0" fill="#ffffff"></path><path d="M0 0 C93.34 2.36, 186.41 1.28, 402.48 0 M0 0 C89.15 0.72, 179.48 0.47, 402.48 0 M402.48 0 C404.28 34.36, 403.77 69.23, 402.48 135 M402.48 0 C402.89 51.32, 403.1 100.52, 402.48 135 M402.48 135 C268.55 136.72, 132.94 135.84, 0 135 M402.48 135 C291.06 133.57, 179.23 133.34, 0 135 M0 135 C0.74 92.06, -1.41 50.5, 0 0 M0 135 C-0.87 89.14, -0.19 42.97, 0 0" stroke="#e03131" stroke-width="1" fill="none"></path></g><g stroke-opacity="0.8" fill-opacity="0.8" transform="translate(2913.019796946693 1293.4617396763415) rotate(0 193.36984252929688 62.5)"><text x="193.36984252929688" y="17.52" font-family="Virgil, Segoe UI Emoji" font-size="20px" fill="#e03131" text-anchor="middle" style="white-space: pre;" direction="ltr" dominant-baseline="alphabetic">if i called another function inside main </text><text x="193.36984252929688" y="42.519999999999996" font-family="Virgil, Segoe UI Emoji" font-size="20px" fill="#e03131" text-anchor="middle" style="white-space: pre;" direction="ltr" dominant-baseline="alphabetic">function , it also stocked in the stack</text><text x="193.36984252929688" y="67.52" font-family="Virgil, Segoe UI Emoji" font-size="20px" fill="#e03131" text-anchor="middle" style="white-space: pre;" direction="ltr" dominant-baseline="alphabetic">with his values of variables for </text><text x="193.36984252929688" y="92.52" font-family="Virgil, Segoe UI Emoji" font-size="20px" fill="#e03131" text-anchor="middle" style="white-space: pre;" direction="ltr" dominant-baseline="alphabetic">example :</text><text x="193.36984252929688" y="117.52" font-family="Virgil, Segoe UI Emoji" font-size="20px" fill="#e03131" text-anchor="middle" style="white-space: pre;" direction="ltr" dominant-baseline="alphabetic">sum (3,7)</text></g><g stroke-linecap="round" transform="translate(2266.816536797419 1045.2139718191986) rotate(0 237.43861607142856 44.42243303571428)"><path d="M-0.37 1.36 L474.76 -1.46 L472.91 90.65 L0.92 87.24" stroke="none" stroke-width="0" fill="#ffffff"></path><path d="M0 0 C156.2 0.33, 313.43 1.73, 474.88 0 M0 0 C185.54 -1.88, 370.64 -1.59, 474.88 0 M474.88 0 C473.98 22.7, 474.19 47.58, 474.88 88.84 M474.88 0 C475.89 22.81, 475.88 45.97, 474.88 88.84 M474.88 88.84 C305.47 87.41, 136.25 87.44, 0 88.84 M474.88 88.84 C318.11 90, 161.9 90.22, 0 88.84 M0 88.84 C-1.11 54.06, -0.03 20.12, 0 0 M0 88.84 C0.01 54.33, -0.04 19.53, 0 0" stroke="#1971c2" stroke-width="2" fill="none"></path></g><g transform="translate(2436.8451720949215 1077.136404854913) rotate(0 67.40998077392578 12.5)"><text x="67.40998077392578" y="17.52" font-family="Virgil, Segoe UI Emoji" font-size="20px" fill="#1971c2" text-anchor="middle" style="white-space: pre;" direction="ltr" dominant-baseline="alphabetic">x = 3 , y = 7</text></g><g stroke-linecap="round"><g transform="translate(2786.558125544747 1108.6939543003887) rotate(0 36.336495535714334 0.234375)"><path d="M-0.88 0.02 C11.53 -0.11, 61.33 -0.11, 73.5 0.11 M0.86 -1.01 C13.27 -1.05, 61.27 1.37, 72.98 1.46" stroke="#1971c2" stroke-width="2" fill="none"></path></g><g transform="translate(2786.558125544747 1108.6939543003887) rotate(0 36.336495535714334 0.234375)"><path d="M49.23 9.27 C54.45 9.1, 59.05 5.12, 72.98 1.46 M49.23 9.27 C58.52 5.82, 68.01 3.4, 72.98 1.46" stroke="#1971c2" stroke-width="2" fill="none"></path></g><g transform="translate(2786.558125544747 1108.6939543003887) rotate(0 36.336495535714334 0.234375)"><path d="M49.77 -7.82 C55 -4.23, 59.48 -4.45, 72.98 1.46 M49.77 -7.82 C58.68 -4.83, 67.97 -0.81, 72.98 1.46" stroke="#1971c2" stroke-width="2" fill="none"></path></g></g><mask></mask><g transform="translate(2880.459851703948 1088.7798200334846) rotate(0 170.32391357421875 17.5)"><text x="0" y="24.528" font-family="Virgil, Segoe UI Emoji" font-size="28px" fill="#1e1e1e" text-anchor="start" style="white-space: pre;" direction="ltr" dominant-baseline="alphabetic">sum(x,y) : called function</text></g><g stroke-linecap="round"><g stroke-opacity="0.8" fill-opacity="0.8" transform="translate(2662.313188583133 1173.1644112723238) rotate(0 342.4916294642858 -149.6065848214286)"><path d="M0 0 C223.81 -97.52, 447.42 -194.5, 684.98 -299.21 M0 0 C236.62 -104.22, 474.48 -208.04, 684.98 -299.21" stroke="#f08c00" stroke-width="2" fill="none"></path></g><g stroke-opacity="0.8" fill-opacity="0.8" transform="translate(2662.313188583133 1173.1644112723238) rotate(0 342.4916294642858 -149.6065848214286)"><path d="M666.84 -282.01 C674.56 -288.15, 679.07 -291.4, 684.98 -299.21 M666.84 -282.01 C672.55 -288.42, 679.28 -294.38, 684.98 -299.21" stroke="#f08c00" stroke-width="2" fill="none"></path></g><g stroke-opacity="0.8" fill-opacity="0.8" transform="translate(2662.313188583133 1173.1644112723238) rotate(0 342.4916294642858 -149.6065848214286)"><path d="M660.03 -297.7 C670.13 -298.69, 676.87 -296.8, 684.98 -299.21 M660.03 -297.7 C668.22 -298.66, 677.32 -299.18, 684.98 -299.21" stroke="#f08c00" stroke-width="2" fill="none"></path></g></g><mask></mask><g stroke-opacity="0.8" fill-opacity="0.8" transform="translate(3374.791484045605 857.2269112723236) rotate(0 93.36991882324219 12.5)"><text x="93.36991882324219" y="17.52" font-family="Virgil, Segoe UI Emoji" font-size="20px" fill="#f08c00" text-anchor="middle" style="white-space: pre;" direction="ltr" dominant-baseline="alphabetic">now main() is posed</text></g><g stroke-opacity="0.3" fill-opacity="0.3" stroke-linecap="round" transform="translate(2799.394661797418 218.53271484375233) rotate(0 424.63169642857144 210.0530133928571)"><path d="M32 0 C314.63 -1.55, 595.85 -1.98, 817.26 0 C838.45 2.93, 852.26 8.08, 849.26 32 C850.11 150.43, 849.83 266.97, 849.26 388.11 C847.39 411.73, 839.99 418.02, 817.26 420.11 C520.34 422.6, 221.36 422.2, 32 420.11 C13.71 423.1, -0.81 410.9, 0 388.11 C-0.41 298.63, 3.18 205.67, 0 32 C2.1 8.64, 8.15 3.37, 32 0" stroke="none" stroke-width="0" fill="#ffffff"></path><path d="M32 0 C207.16 -3.68, 381.43 -3.61, 817.26 0 M32 0 C270.61 0.25, 508.85 -0.06, 817.26 0 M817.26 0 C840.36 0.82, 851.22 10.77, 849.26 32 M817.26 0 C836.98 1.55, 850.37 10.92, 849.26 32 M849.26 32 C851.71 153.45, 851.07 276.03, 849.26 388.11 M849.26 32 C848.78 170.99, 848.13 309.49, 849.26 388.11 M849.26 388.11 C847.3 410.85, 837.67 420.69, 817.26 420.11 M849.26 388.11 C851.22 410.3, 839.7 419.87, 817.26 420.11 M817.26 420.11 C503.65 420.55, 190.91 420.73, 32 420.11 M817.26 420.11 C621.61 422.67, 426.11 422.38, 32 420.11 M32 420.11 C11.79 418.46, 0.4 410.8, 0 388.11 M32 420.11 C10.38 422.09, 1.33 411, 0 388.11 M0 388.11 C0.52 311.13, -0.29 236.98, 0 32 M0 388.11 C0.58 257.49, -0.09 126.79, 0 32 M0 32 C-0.07 9.39, 11.54 1.71, 32 0 M0 32 C0.89 12.6, 10.39 0.41, 32 0" stroke="#1e1e1e" stroke-width="1" fill="none"></path></g><g stroke-linecap="round"><g stroke-opacity="0.8" fill-opacity="0.8" transform="translate(2592.5140814402757 1071.663295200895) rotate(0 136.4704241071429 -81.6768973214285)"><path d="M0 0 C88.4 -52.7, 176.48 -105.38, 272.94 -163.35 M0 0 C65.9 -38.82, 132.92 -77.63, 272.94 -163.35" stroke="#f08c00" stroke-width="2" fill="none"></path></g><g stroke-opacity="0.8" fill-opacity="0.8" transform="translate(2592.5140814402757 1071.663295200895) rotate(0 136.4704241071429 -81.6768973214285)"><path d="M257.3 -143.85 C261.97 -149.93, 267.56 -156.48, 272.94 -163.35 M257.3 -143.85 C260.96 -149.11, 265.35 -152.37, 272.94 -163.35" stroke="#f08c00" stroke-width="2" fill="none"></path></g><g stroke-opacity="0.8" fill-opacity="0.8" transform="translate(2592.5140814402757 1071.663295200895) rotate(0 136.4704241071429 -81.6768973214285)"><path d="M248.42 -158.47 C255.8 -159.87, 264.24 -161.73, 272.94 -163.35 M248.42 -158.47 C254.33 -160.09, 260.89 -159.78, 272.94 -163.35" stroke="#f08c00" stroke-width="2" fill="none"></path></g></g><mask></mask><g stroke-opacity="0.8" fill-opacity="0.8" transform="translate(2786.3313334631557 866.7972237723238) rotate(0 178.02984619140625 12.5)"><text x="178.02984619140625" y="17.52" font-family="Virgil, Segoe UI Emoji" font-size="20px" fill="#f08c00" text-anchor="middle" style="white-space: pre;" direction="ltr" dominant-baseline="alphabetic">the return value , return to main ()</text></g><g stroke-opacity="0.8" fill-opacity="0.8" transform="translate(2828.331261528864 251.8641880580381) rotate(0 44.53996276855469 12.5)"><text x="44.53996276855469" y="17.52" font-family="Virgil, Segoe UI Emoji" font-size="20px" fill="#1e1e1e" text-anchor="middle" style="white-space: pre;" direction="ltr" dominant-baseline="alphabetic">example :</text></g><g stroke-opacity="0.8" fill-opacity="0.8" transform="translate(2840.6109932793524 314.82212611607383) rotate(0 79.6039810180664 17.5)"><text x="79.6039810180664" y="24.528" font-family="Virgil, Segoe UI Emoji" font-size="28px" fill="#e03131" text-anchor="middle" style="white-space: pre;" direction="ltr" dominant-baseline="alphabetic">4! = 4 * 3!</text></g><g stroke-opacity="0.8" fill-opacity="0.8" transform="translate(2977.622750176325 373.0810546875024) rotate(0 81.18597412109375 17.5)"><text x="81.18597412109375" y="24.528" font-family="Virgil, Segoe UI Emoji" font-size="28px" fill="#e03131" text-anchor="middle" style="white-space: pre;" direction="ltr" dominant-baseline="alphabetic">3! = 3 * 2!</text></g><g stroke-opacity="0.8" fill-opacity="0.8" transform="translate(3119.937678503613 438.53306361607383) rotate(0 75.87997436523438 17.5)"><text x="75.87997436523438" y="24.528" font-family="Virgil, Segoe UI Emoji" font-size="28px" fill="#e03131" text-anchor="middle" style="white-space: pre;" direction="ltr" dominant-baseline="alphabetic">2! = 2 * 1!</text></g><g stroke-opacity="0.8" fill-opacity="0.8" transform="translate(3298.6798082381974 498.71163504464516) rotate(0 34.36998748779297 17.5)"><text x="34.36998748779297" y="24.528" font-family="Virgil, Segoe UI Emoji" font-size="28px" fill="#e03131" text-anchor="middle" style="white-space: pre;" direction="ltr" dominant-baseline="alphabetic">1! = 1</text></g><g stroke-opacity="0.8" fill-opacity="0.8" transform="translate(3395.127603561161 254.83328683035953) rotate(0 112.41996002197266 17.5)"><text x="112.41996002197266" y="24.528" font-family="Virgil, Segoe UI Emoji" font-size="28px" fill="#2f9e44" text-anchor="middle" style="white-space: pre;" direction="ltr" dominant-baseline="alphabetic">1! = 1 and 0! = 1</text></g><g stroke-opacity="0.8" fill-opacity="0.8" transform="translate(3215.2220249478796 252.27748325893094) rotate(0 80.7239761352539 17.5)"><text x="80.7239761352539" y="24.528" font-family="Virgil, Segoe UI Emoji" font-size="28px" fill="#1e1e1e" text-anchor="middle" style="white-space: pre;" direction="ltr" dominant-baseline="alphabetic">base case :</text></g><g stroke-linecap="round"><g stroke-opacity="0.7" fill-opacity="0.7" transform="translate(3223.139081440276 541.6357421875024) rotate(0 -29.768415178571445 -15.839843750000028)"><path d="M0.04 0.46 C-9.7 -5.02, -49.11 -27.28, -59.08 -32.61 M-1.4 -0.35 C-11.21 -5.73, -49.92 -26.6, -59.79 -31.57" stroke="#1e1e1e" stroke-width="1" fill="none"></path></g><g stroke-opacity="0.7" fill-opacity="0.7" transform="translate(3223.139081440276 541.6357421875024) rotate(0 -29.768415178571445 -15.839843750000028)"><path d="M-35.01 -28.24 C-40.4 -28.3, -48.85 -30.25, -59.79 -31.57 M-35.01 -28.24 C-42.35 -28.5, -50.6 -30.6, -59.79 -31.57" stroke="#1e1e1e" stroke-width="1" fill="none"></path></g><g stroke-opacity="0.7" fill-opacity="0.7" transform="translate(3223.139081440276 541.6357421875024) rotate(0 -29.768415178571445 -15.839843750000028)"><path d="M-42.95 -13.09 C-46.4 -16.9, -52.89 -22.61, -59.79 -31.57 M-42.95 -13.09 C-47.74 -18.04, -53.51 -24.89, -59.79 -31.57" stroke="#1e1e1e" stroke-width="1" fill="none"></path></g></g><mask></mask><g stroke-linecap="round"><g stroke-opacity="0.7" fill-opacity="0.7" transform="translate(3092.239059982134 481.07871912499866) rotate(0 -29.768415178571445 -15.839843750000028)"><path d="M1.08 0.86 C-8.99 -4.75, -50.68 -27.42, -60.73 -32.66 M0.19 0.27 C-9.51 -4.7, -48.65 -26.21, -58.64 -31.64" stroke="#1e1e1e" stroke-width="1" fill="none"></path></g><g stroke-opacity="0.7" fill-opacity="0.7" transform="translate(3092.239059982134 481.07871912499866) rotate(0 -29.768415178571445 -15.839843750000028)"><path d="M-33.92 -27.88 C-39.33 -30.68, -49.23 -29.14, -58.64 -31.64 M-33.92 -27.88 C-43.86 -28.91, -53 -31.69, -58.64 -31.64" stroke="#1e1e1e" stroke-width="1" fill="none"></path></g><g stroke-opacity="0.7" fill-opacity="0.7" transform="translate(3092.239059982134 481.07871912499866) rotate(0 -29.768415178571445 -15.839843750000028)"><path d="M-42.13 -12.87 C-45.4 -19.88, -53.03 -22.49, -58.64 -31.64 M-42.13 -12.87 C-48.83 -19.77, -54.76 -28.43, -58.64 -31.64" stroke="#1e1e1e" stroke-width="1" fill="none"></path></g></g><mask></mask><g stroke-linecap="round"><g stroke-opacity="0.7" fill-opacity="0.7" transform="translate(2961.93772069642 414.53854055357004) rotate(0 -29.768415178571445 -15.839843750000028)"><path d="M-0.2 0.04 C-10.24 -5.33, -50.03 -25.69, -59.87 -31.16 M-1.76 -0.98 C-12.02 -6.2, -51.31 -27.84, -60.99 -33" stroke="#1e1e1e" stroke-width="1" fill="none"></path></g><g stroke-opacity="0.7" fill-opacity="0.7" transform="translate(2961.93772069642 414.53854055357004) rotate(0 -29.768415178571445 -15.839843750000028)"><path d="M-36.26 -29.31 C-44.38 -31.12, -51.72 -31.28, -60.99 -33 M-36.26 -29.31 C-42.3 -29.97, -47.23 -30.9, -60.99 -33" stroke="#1e1e1e" stroke-width="1" fill="none"></path></g><g stroke-opacity="0.7" fill-opacity="0.7" transform="translate(2961.93772069642 414.53854055357004) rotate(0 -29.768415178571445 -15.839843750000028)"><path d="M-44.42 -14.28 C-49.98 -21.03, -54.64 -26.15, -60.99 -33 M-44.42 -14.28 C-48.73 -18.18, -51.93 -22.3, -60.99 -33" stroke="#1e1e1e" stroke-width="1" fill="none"></path></g></g><mask></mask><g transform="translate(3287.319822886635 438.9460100446452) rotate(0 83.22997283935547 17.5)"><text x="83.22997283935547" y="24.528" font-family="Virgil, Segoe UI Emoji" font-size="28px" fill="#2f9e44" text-anchor="middle" style="white-space: pre;" direction="ltr" dominant-baseline="alphabetic">= 2 * 1 = 2</text></g><g transform="translate(3154.853445628334 375.28529575893094) rotate(0 87.96197509765625 17.5)"><text x="87.96197509765625" y="24.528" font-family="Virgil, Segoe UI Emoji" font-size="28px" fill="#2f9e44" text-anchor="middle" style="white-space: pre;" direction="ltr" dominant-baseline="alphabetic">= 3 * 2 = 6</text></g><g transform="translate(3043.85025654142 314.40917968750244) rotate(0 96.34797668457031 17.5)"><text x="96.34797668457031" y="24.528" font-family="Virgil, Segoe UI Emoji" font-size="28px" fill="#2f9e44" text-anchor="middle" style="white-space: pre;" direction="ltr" dominant-baseline="alphabetic">= 4 * 6 = 24</text></g><g transform="translate(2843.6882027520087 543.9404296875023) rotate(0 110.39395904541016 22.5)"><text x="110.39395904541016" y="31.536" font-family="Virgil, Segoe UI Emoji" font-size="36px" fill="#2f9e44" text-anchor="middle" style="white-space: pre;" direction="ltr" dominant-baseline="alphabetic">Result = 24</text></g><g stroke-opacity="0.6" fill-opacity="0.6" stroke-linecap="round" transform="translate(3919.450465368846 228.1148856026811) rotate(0 214.3694196428571 443.31194196428567)"><path d="M32 0 C128.24 2.3, 227.1 4.95, 396.74 0 C417.64 -0.36, 429.75 12.56, 428.74 32 C429.9 331.96, 429.41 634.34, 428.74 854.62 C431.24 879.01, 421.26 883.63, 396.74 886.62 C322.15 891.28, 243.89 888.85, 32 886.62 C11.02 890.18, 2.46 878.51, 0 854.62 C0.18 666.7, 0.97 479.36, 0 32 C-3.37 11.96, 14.06 -2.34, 32 0" stroke="none" stroke-width="0" fill="#ffffff"></path><path d="M32 0 C109.16 -2.12, 184.56 -1.88, 396.74 0 M32 0 C173.85 0.07, 315.67 -0.21, 396.74 0 M396.74 0 C418.16 1.83, 428.61 10.76, 428.74 32 M396.74 0 C416.98 -0.94, 428.02 11.74, 428.74 32 M428.74 32 C432.1 209.27, 431.68 385.37, 428.74 854.62 M428.74 32 C429.56 217.31, 429.79 403.41, 428.74 854.62 M428.74 854.62 C427.86 877.22, 418.8 886.54, 396.74 886.62 M428.74 854.62 C430.9 875.66, 417.65 888.26, 396.74 886.62 M396.74 886.62 C269.94 886.03, 143.19 886.38, 32 886.62 M396.74 886.62 C321.91 885.4, 246.72 885.53, 32 886.62 M32 886.62 C12.62 884.91, 1.85 875.87, 0 854.62 M32 886.62 C10.8 887.87, -0.92 876.29, 0 854.62 M0 854.62 C3.1 625.38, 2.52 394.65, 0 32 M0 854.62 C1.45 572.28, 1.45 289.19, 0 32 M0 32 C1.68 12.47, 11.96 -1.09, 32 0 M0 32 C1.71 8.7, 8.52 1.32, 32 0" stroke="#1e1e1e" stroke-width="1" fill="none"></path></g><g stroke-linecap="round"><g stroke-opacity="0.6" fill-opacity="0.6" transform="translate(3687.0453314402744 459.1472516741095) rotate(0 95.86774553571422 -0.9012276785714448)"><path d="M-0.94 -1.05 C30.89 -1.36, 159.35 -2.2, 191.43 -2.16" stroke="#2f9e44" stroke-width="1.5" fill="none" stroke-dasharray="8 9"></path></g><g stroke-opacity="0.6" fill-opacity="0.6" transform="translate(3687.0453314402744 459.1472516741095) rotate(0 95.86774553571422 -0.9012276785714448)"><path d="M167.96 6.47 C174.13 3.24, 183.2 0.52, 191.43 -2.16" stroke="#2f9e44" stroke-width="1.5" fill="none"></path></g><g stroke-opacity="0.6" fill-opacity="0.6" transform="translate(3687.0453314402744 459.1472516741095) rotate(0 95.86774553571422 -0.9012276785714448)"><path d="M167.91 -10.63 C174.05 -8.11, 183.13 -5.06, 191.43 -2.16" stroke="#2f9e44" stroke-width="1.5" fill="none"></path></g></g><mask></mask><g stroke-opacity="0.6" fill-opacity="0.6" transform="translate(3689.8977266341917 408.2878766741096) rotate(0 91.82394409179688 10)"><text x="91.82394409179688" y="14.016" font-family="Virgil, Segoe UI Emoji" font-size="16px" fill="#2f9e44" text-anchor="middle" style="white-space: pre;" direction="ltr" dominant-baseline="alphabetic">how that work in stack</text></g><g stroke-linecap="round"><g stroke-opacity="0.6" fill-opacity="0.6" transform="translate(3920.3210010831317 907.3894391741094) rotate(0 212.14006696428578 0.7672991071427759)"><path d="M-0.97 -0.23 C69.76 0, 353.77 1.44, 424.71 1.75" stroke="#1e1e1e" stroke-width="1.5" fill="none" stroke-dasharray="8 9"></path></g></g><mask></mask><g stroke-linecap="round"><g stroke-opacity="0.6" fill-opacity="0.6" transform="translate(3920.919049593693 724.3604094813467) rotate(0 214.77678571428555 1.0825892857142208)"><path d="M-0.36 0.91 C71.06 1.09, 358.07 1.16, 429.62 1.26" stroke="#1e1e1e" stroke-width="1.5" fill="none" stroke-dasharray="8 9"></path></g></g><mask></mask><g stroke-linecap="round"><g stroke-opacity="0.6" fill-opacity="0.6" transform="translate(3919.8448855266975 580.5325044020502) rotate(0 214.77678571428555 1.0825892857142208)"><path d="M-0.46 -0.48 C71.43 -0.35, 358.54 0.67, 430.22 1.1" stroke="#1e1e1e" stroke-width="1.5" fill="none" stroke-dasharray="8 9"></path></g></g><mask></mask><g stroke-linecap="round"><g stroke-opacity="0.6" fill-opacity="0.6" transform="translate(3923.042430169555 418.0604061877644) rotate(0 214.77678571428555 1.0825892857142208)"><path d="M-1.04 -0.72 C70.28 -0.36, 357.01 2.52, 428.61 3.07" stroke="#1e1e1e" stroke-width="1.5" fill="none" stroke-dasharray="8 9"></path></g></g><mask></mask><g stroke-opacity="0.6" fill-opacity="0.6" transform="translate(4493.4069429427855 991.256975446431) rotate(0 45.345977783203125 17.5)"><text x="45.345977783203125" y="24.528" font-family="Virgil, Segoe UI Emoji" font-size="28px" fill="#1971c2" text-anchor="middle" style="white-space: pre;" direction="ltr" dominant-baseline="alphabetic">main ()</text></g><g stroke-linecap="round"><g stroke-opacity="0.6" fill-opacity="0.6" transform="translate(4390.293099297417 1012.1163504464308) rotate(0 35.644531250000455 0.608258928571388)"><path d="M-0.79 -0.56 C11.07 -0.31, 59.72 0.33, 71.84 0.73" stroke="#1971c2" stroke-width="1.5" fill="none" stroke-dasharray="8 9"></path></g><g stroke-opacity="0.6" fill-opacity="0.6" transform="translate(4390.293099297417 1012.1163504464308) rotate(0 35.644531250000455 0.608258928571388)"><path d="M48.17 8.77 C55.75 6.96, 64.33 4.21, 71.84 0.73" stroke="#1971c2" stroke-width="1.5" fill="none"></path></g><g stroke-opacity="0.6" fill-opacity="0.6" transform="translate(4390.293099297417 1012.1163504464308) rotate(0 35.644531250000455 0.608258928571388)"><path d="M48.54 -8.33 C55.88 -4.02, 64.33 -0.66, 71.84 0.73" stroke="#1971c2" stroke-width="1.5" fill="none"></path></g></g><mask></mask><g stroke-opacity="0.6" fill-opacity="0.6" transform="translate(4023.7426352122484 989.9344308035736) rotate(0 110.33394622802734 17.5)"><text x="110.33394622802734" y="24.528" font-family="Virgil, Segoe UI Emoji" font-size="28px" fill="#e03131" text-anchor="middle" style="white-space: pre;" direction="ltr" dominant-baseline="alphabetic">ft_factorial(4);</text></g><g stroke-opacity="0.6" fill-opacity="0.6" transform="translate(4486.464995240705 807.8362165178595) rotate(0 118.41194152832031 17.5)"><text x="118.41194152832031" y="24.528" font-family="Virgil, Segoe UI Emoji" font-size="28px" fill="#1971c2" text-anchor="middle" style="white-space: pre;" direction="ltr" dominant-baseline="alphabetic">ft_factorila (nb)</text></g><g stroke-linecap="round"><g stroke-opacity="0.6" fill-opacity="0.6" transform="translate(4396.121356411884 823.7513950892878) rotate(0 35.644531250000455 0.608258928571388)"><path d="M0.93 -0.29 C13 0.01, 60.06 1.22, 71.66 1.4" stroke="#1971c2" stroke-width="1.5" fill="none" stroke-dasharray="8 9"></path></g><g stroke-opacity="0.6" fill-opacity="0.6" transform="translate(4396.121356411884 823.7513950892878) rotate(0 35.644531250000455 0.608258928571388)"><path d="M47.99 9.45 C53.11 7.99, 59.47 4.21, 71.66 1.4" stroke="#1971c2" stroke-width="1.5" fill="none"></path></g><g stroke-opacity="0.6" fill-opacity="0.6" transform="translate(4396.121356411884 823.7513950892878) rotate(0 35.644531250000455 0.608258928571388)"><path d="M48.36 -7.65 C53.34 -5.08, 59.6 -4.84, 71.66 1.4" stroke="#1971c2" stroke-width="1.5" fill="none"></path></g></g><mask></mask><g stroke-opacity="0.6" fill-opacity="0.6" transform="translate(4097.924577743288 795.2413504464309) rotate(0 45.24798583984375 17.5)"><text x="45.24798583984375" y="24.528" font-family="Virgil, Segoe UI Emoji" font-size="28px" fill="#e03131" text-anchor="middle" style="white-space: pre;" direction="ltr" dominant-baseline="alphabetic">nb = 4</text></g><g stroke-opacity="0.6" fill-opacity="0.6" transform="translate(4477.1853024024185 645.7268415178593) rotate(0 118.41194152832031 17.5)"><text x="118.41194152832031" y="24.528" font-family="Virgil, Segoe UI Emoji" font-size="28px" fill="#1971c2" text-anchor="middle" style="white-space: pre;" direction="ltr" dominant-baseline="alphabetic">ft_factorila (nb)</text></g><g stroke-linecap="round"><g stroke-opacity="0.6" fill-opacity="0.6" transform="translate(4384.313761787882 662.7301897321449) rotate(0 35.644531250000455 0.608258928571388)"><path d="M0.17 -0.96 C11.97 -1.02, 59.69 0.39, 71.63 0.77" stroke="#1971c2" stroke-width="1.5" fill="none" stroke-dasharray="8 9"></path></g><g stroke-opacity="0.6" fill-opacity="0.6" transform="translate(4384.313761787882 662.7301897321449) rotate(0 35.644531250000455 0.608258928571388)"><path d="M47.89 8.62 C55.03 6.23, 64.71 3.63, 71.63 0.77" stroke="#1971c2" stroke-width="1.5" fill="none"></path></g><g stroke-opacity="0.6" fill-opacity="0.6" transform="translate(4384.313761787882 662.7301897321449) rotate(0 35.644531250000455 0.608258928571388)"><path d="M48.4 -8.48 C55.52 -4.51, 65 -0.76, 71.63 0.77" stroke="#1971c2" stroke-width="1.5" fill="none"></path></g></g><mask></mask><g stroke-opacity="0.6" fill-opacity="0.6" transform="translate(4483.758963116705 491.80385044643083) rotate(0 118.41194152832031 17.5)"><text x="118.41194152832031" y="24.528" font-family="Virgil, Segoe UI Emoji" font-size="28px" fill="#1971c2" text-anchor="middle" style="white-space: pre;" direction="ltr" dominant-baseline="alphabetic">ft_factorila (nb)</text></g><g stroke-linecap="round"><g stroke-opacity="0.6" fill-opacity="0.6" transform="translate(4393.415324287884 507.71902901785916) rotate(0 35.644531250000455 0.608258928571388)"><path d="M0.32 0.13 C12.37 -0.03, 59.92 -0.12, 71.93 0.21" stroke="#1971c2" stroke-width="1.5" fill="none" stroke-dasharray="8 9"></path></g><g stroke-opacity="0.6" fill-opacity="0.6" transform="translate(4393.415324287884 507.71902901785916) rotate(0 35.644531250000455 0.608258928571388)"><path d="M48.35 8.52 C54.82 7.29, 59.24 5.85, 71.93 0.21" stroke="#1971c2" stroke-width="1.5" fill="none"></path></g><g stroke-opacity="0.6" fill-opacity="0.6" transform="translate(4393.415324287884 507.71902901785916) rotate(0 35.644531250000455 0.608258928571388)"><path d="M48.53 -8.58 C55.11 -5.22, 59.49 -2.07, 71.93 0.21" stroke="#1971c2" stroke-width="1.5" fill="none"></path></g></g><mask></mask><g stroke-opacity="0.6" fill-opacity="0.6" transform="translate(4489.657400616705 318.24916294643094) rotate(0 118.41194152832031 17.5)"><text x="118.41194152832031" y="24.528" font-family="Virgil, Segoe UI Emoji" font-size="28px" fill="#1971c2" text-anchor="middle" style="white-space: pre;" direction="ltr" dominant-baseline="alphabetic">ft_factorila (nb)</text></g><g stroke-linecap="round"><g stroke-opacity="0.6" fill-opacity="0.6" transform="translate(4399.313761787884 334.16434151785927) rotate(0 35.644531250000455 0.608258928571388)"><path d="M0.28 0.85 C12.24 0.95, 59.18 1.73, 70.9 1.66" stroke="#1971c2" stroke-width="1.5" fill="none" stroke-dasharray="8 9"></path></g><g stroke-opacity="0.6" fill-opacity="0.6" transform="translate(4399.313761787884 334.16434151785927) rotate(0 35.644531250000455 0.608258928571388)"><path d="M47.35 10.05 C54.03 7.44, 58.7 5, 70.9 1.66" stroke="#1971c2" stroke-width="1.5" fill="none"></path></g><g stroke-opacity="0.6" fill-opacity="0.6" transform="translate(4399.313761787884 334.16434151785927) rotate(0 35.644531250000455 0.608258928571388)"><path d="M47.46 -7.05 C54.26 -5.78, 58.91 -4.34, 70.9 1.66" stroke="#1971c2" stroke-width="1.5" fill="none"></path></g></g><mask></mask><g stroke-opacity="0.6" fill-opacity="0.6" transform="translate(4091.88183024573 630.7212611607166) rotate(0 45.821983337402344 17.5)"><text x="45.821983337402344" y="24.528" font-family="Virgil, Segoe UI Emoji" font-size="28px" fill="#e03131" text-anchor="middle" style="white-space: pre;" direction="ltr" dominant-baseline="alphabetic">nb = 3</text></g><g stroke-opacity="0.6" fill-opacity="0.6" transform="translate(4084.1689973861453 485.62639508928805) rotate(0 61.94720458984398 17.5)"><text x="61.94720458984399" y="24.528" font-family="Virgil, Segoe UI Emoji" font-size="28px" fill="#e03131" text-anchor="middle" style="white-space: pre;" direction="ltr" dominant-baseline="alphabetic">nb = 2</text></g><g stroke-opacity="0.6" fill-opacity="0.6" transform="translate(4099.614015609499 316.72014508928794) rotate(0 40.08198547363281 17.5)"><text x="40.08198547363281" y="24.528" font-family="Virgil, Segoe UI Emoji" font-size="28px" fill="#e03131" text-anchor="middle" style="white-space: pre;" direction="ltr" dominant-baseline="alphabetic">nb = 1</text></g><g stroke-linecap="round"><g stroke-opacity="0.6" fill-opacity="0.6" transform="translate(4815.918099297417 341.9377790178596) rotate(0 0 62.053571428571416)"><path d="M-0.34 -0.14 C-0.42 20.65, -0.53 103.77, -0.37 124.56" stroke="#e03131" stroke-width="1.5" fill="none" stroke-dasharray="8 9"></path></g><g stroke-opacity="0.6" fill-opacity="0.6" transform="translate(4815.918099297417 341.9377790178596) rotate(0 0 62.053571428571416)"><path d="M-8.98 101.09 C-6.59 107.76, -2.93 116.63, -0.37 124.56" stroke="#e03131" stroke-width="1.5" fill="none"></path></g><g stroke-opacity="0.6" fill-opacity="0.6" transform="translate(4815.918099297417 341.9377790178596) rotate(0 0 62.053571428571416)"><path d="M8.12 101.05 C5.21 107.69, 3.57 116.57, -0.37 124.56" stroke="#e03131" stroke-width="1.5" fill="none"></path></g></g><mask></mask><g stroke-linecap="round"><g stroke-opacity="0.6" fill-opacity="0.6" transform="translate(4815.391505930803 529.7735500694943) rotate(0 0 62.053571428571416)"><path d="M-1.04 1.11 C-0.87 21.71, -0.13 102.98, -0.08 123.5" stroke="#e03131" stroke-width="1.5" fill="none" stroke-dasharray="8 9"></path></g><g stroke-opacity="0.6" fill-opacity="0.6" transform="translate(4815.391505930803 529.7735500694943) rotate(0 0 62.053571428571416)"><path d="M-8.78 100.06 C-5.11 104.93, -6.15 108.74, -0.08 123.5" stroke="#e03131" stroke-width="1.5" fill="none"></path></g><g stroke-opacity="0.6" fill-opacity="0.6" transform="translate(4815.391505930803 529.7735500694943) rotate(0 0 62.053571428571416)"><path d="M8.32 99.96 C8.4 104.69, 3.77 108.54, -0.08 123.5" stroke="#e03131" stroke-width="1.5" fill="none"></path></g></g><mask></mask><g stroke-linecap="round"><g stroke-opacity="0.6" fill-opacity="0.6" transform="translate(4812.595747002231 707.4130589980657) rotate(0 0 62.05357142857139)"><path d="M0.95 -0.45 C0.99 20.59, 0.44 104.54, 0.33 125.15" stroke="#e03131" stroke-width="1.5" fill="none" stroke-dasharray="8 9"></path></g><g stroke-opacity="0.6" fill-opacity="0.6" transform="translate(4812.595747002231 707.4130589980657) rotate(0 0 62.05357142857139)"><path d="M-8.08 101.61 C-6.43 109.43, -1.31 116.75, 0.33 125.15" stroke="#e03131" stroke-width="1.5" fill="none"></path></g><g stroke-opacity="0.6" fill-opacity="0.6" transform="translate(4812.595747002231 707.4130589980657) rotate(0 0 62.05357142857139)"><path d="M9.02 101.71 C5.34 109.64, 5.13 116.92, 0.33 125.15" stroke="#e03131" stroke-width="1.5" fill="none"></path></g></g><mask></mask><g stroke-linecap="round"><g stroke-opacity="0.6" fill-opacity="0.6" transform="translate(4809.682800573661 871.603907212351) rotate(0 0 62.05357142857139)"><path d="M1.02 -0.01 C0.93 20.6, 0.72 102.85, 0.6 123.37" stroke="#e03131" stroke-width="1.5" fill="none" stroke-dasharray="8 9"></path></g><g stroke-opacity="0.6" fill-opacity="0.6" transform="translate(4809.682800573661 871.603907212351) rotate(0 0 62.05357142857139)"><path d="M-7.86 99.84 C-4.57 110.11, -2.43 118.93, 0.6 123.37" stroke="#e03131" stroke-width="1.5" fill="none"></path></g><g stroke-opacity="0.6" fill-opacity="0.6" transform="translate(4809.682800573661 871.603907212351) rotate(0 0 62.05357142857139)"><path d="M9.24 99.91 C5.74 110.3, 1.09 119.09, 0.6 123.37" stroke="#e03131" stroke-width="1.5" fill="none"></path></g></g><mask></mask><g stroke-opacity="0.6" fill-opacity="0.6" transform="translate(4866.335275680299 385.15764508928817) rotate(0 52.89197540283203 17.5)"><text x="52.89197540283203" y="24.528" font-family="Virgil, Segoe UI Emoji" font-size="28px" fill="#e03131" text-anchor="middle" style="white-space: pre;" direction="ltr" dominant-baseline="alphabetic">return 1</text></g><g stroke-opacity="0.6" fill-opacity="0.6" transform="translate(4858.721547565763 556.3574218750024) rotate(0 59.06597137451172 17.5)"><text x="59.06597137451172" y="24.528" font-family="Virgil, Segoe UI Emoji" font-size="28px" fill="#e03131" text-anchor="middle" style="white-space: pre;" direction="ltr" dominant-baseline="alphabetic">return 2</text></g><g stroke-opacity="0.6" fill-opacity="0.6" transform="translate(4856.007444956946 731.3574218750023) rotate(0 58.05797576904297 17.5)"><text x="58.05797576904297" y="24.528" font-family="Virgil, Segoe UI Emoji" font-size="28px" fill="#e03131" text-anchor="middle" style="white-space: pre;" direction="ltr" dominant-baseline="alphabetic">return 6</text></g><g stroke-opacity="0.6" fill-opacity="0.6" transform="translate(4846.307307409861 895.2246093750024) rotate(0 68.02597045898438 17.5)"><text x="68.02597045898438" y="24.528" font-family="Virgil, Segoe UI Emoji" font-size="28px" fill="#e03131" text-anchor="middle" style="white-space: pre;" direction="ltr" dominant-baseline="alphabetic">return 24</text></g></svg>